#!OML:ASF F:\VICON\USERDATA\INSTALL\SteveWalk\SteveWalk.ASF
:FULLY-SPECIFIED
:DEGREES
183
root 0.187735 16.4024 -6.58623 16.0977 -2.1964 3.12378
lowerback -14.209 -0.618337 -4.92495
upperback -5.03556 -0.113362 -1.04047
thorax 2.64803 -0.0359466 1.67191
lowerneck -5.37345 -0.858 -0.18958
upperneck 10.7718 -1.30494 1.47403
head 4.53735 -0.577348 0.45879
rclavicle 1.04455e-014 -9.14409e-015
rhumerus -43.2082 -17.5971 -77.0368
rradius 20.3136
rwrist 4.11723
rhand -16.0499 -33.3471
rfingers 7.12502
rthumb 10.1521 -63.0822
lclavicle 1.04455e-014 -9.14409e-015
lhumerus -36.8952 20.5419 72.3679
lradius 18.5057
lwrist -14.5198
lhand -19.2854 -15.9861
lfingers 7.12502
lthumb 7.02966 13.8772
rfemur -42.6629 -3.71209 17.5444
rtibia 73.0183
rfoot -9.12723 2.54108
rtoes -10.7632
lfemur -29.6751 1.88637 -27.6074
ltibia 35.4117
lfoot -20.7485 -3.50215
ltoes -6.00968
184
root 0.192948 16.4018 -6.39003 16.0688 -2.03697 2.90202
lowerback -14.1678 -0.656315 -4.73192
upperback -5.04379 -0.19815 -0.882771
thorax 2.62359 -0.0774565 1.71481
lowerneck -5.39074 -0.887594 -0.183315
upperneck 11.0665 -1.33463 1.33867
head 4.64756 -0.597129 0.410421
rclavicle -3.37313e-015 -1.59028e-015
rhumerus -44.4044 -19.7896 -74.5921
rradius 18.8811
rwrist 7.35428
rhand -15.6638 -32.9377
rfingers 7.12502
rthumb 10.5245 -62.6542
lclavicle -3.37313e-015 -1.59028e-015
lhumerus -35.3216 17.9209 74.3852
lradius 19.5797
lwrist -11.9817
lhand -19.2855 -15.3919
lfingers 7.12502
lthumb 7.02954 14.4714
rfemur -43.7999 -3.45235 17.9683
rtibia 71.6454
rfoot -10.3188 1.8151
rtoes -12.2567
lfemur -28.8365 2.45728 -27.4647
ltibia 35.3836
lfoot -21.4454 -3.90994
ltoes -6.10064
185
root 0.194834 16.3947 -6.19436 15.9755 -1.6705 2.77255
lowerback -14.0606 -0.780247 -4.61145
upperback -5.08712 -0.38985 -0.757745
thorax 2.53321 -0.169955 1.74754
lowerneck -5.10385 -0.851474 -0.29736
upperneck 11.1794 -1.28714 1.43616
head 4.63199 -0.57435 0.467593
rclavicle -7.53208e-016 1.08338e-014
rhumerus -45.9856 -22.1364 -71.7273
rradius 17.5368
rwrist 10.8802
rhand -15.3082 -32.7015
rfingers 7.12502
rthumb 10.8674 -62.4003
lclavicle -7.53208e-016 1.08338e-014
lhumerus -34.0703 15.5055 75.9773
lradius 20.7145
lwrist -9.46747
lhand -19.348 -14.8024
lfingers 7.12502
lthumb 6.96921 15.0629
rfemur -44.755 -3.35196 18.3547
rtibia 70.032
rfoot -11.4641 0.844362
rtoes -14.2039
lfemur -27.9142 3.05305 -27.3779
ltibia 35.2869
lfoot -22.123 -4.78324
ltoes -4.69957
186
root 0.196271 16.3784 -6.00308 16.0065 -1.25158 2.8739
lowerback -13.9497 -0.934165 -4.66783
upperback -5.30482 -0.59961 -0.730483
thorax 2.25833 -0.264546 1.77605
lowerneck -4.36087 -0.837752 -0.453575
upperneck 11.1065 -1.27618 1.64257
head 4.45801 -0.569026 0.567553
rclavicle 2.34814e-015 -4.96962e-015
rhumerus -47.9719 -24.7189 -68.3508
rradius 16.2133
rwrist 14.7442
rhand -15.4143 -33.1614
rfingers 7.12502
rthumb 10.7652 -62.8655
lclavicle 2.34814e-015 -4.96962e-015
lhumerus -33.2063 13.1255 77.2041
lradius 21.9665
lwrist -7.35452
lhand -19.5577 -15.7566
lfingers 7.12502
lthumb 6.76676 14.1153
rfemur -45.7018 -3.31413 18.4717
rtibia 68.2106
rfoot -12.6125 -0.168592
rtoes -15.7761
lfemur -27.1211 3.63126 -27.5428
ltibia 35.157
lfoot -22.8188 -5.4647
ltoes -4.06414
187
root 0.201513 16.3703 -5.80688 16.1239 -0.766368 2.86644
lowerback -13.9451 -1.08472 -4.54744
upperback -5.43006 -0.818965 -0.69255
thorax 2.13788 -0.369973 1.71423
lowerneck -4.14914 -0.885644 -0.508514
upperneck 11.2094 -1.3443 1.70005
head 4.4548 -0.602747 0.593917
rclavicle 5.889e-015 -8.94531e-015
rhumerus -50.3353 -28.305 -63.734
rradius 14.7623
rwrist 20.09
rhand -15.4748 -33.2588
rfingers 7.12502
rthumb 10.7068 -62.9659
lclavicle 5.889e-015 -8.94531e-015
lhumerus -32.2099 10.7559 78.2997
lradius 23.4174
lwrist -5.49509
lhand -19.7701 -16.9711
lfingers 7.12502
lthumb 6.56175 12.9073
rfemur -46.5237 -3.45361 18.7143
rtibia 66.1287
rfoot -13.2891 -1.05679
rtoes -15.9597
lfemur -26.3565 4.13205 -27.5589
ltibia 35.0022
lfoot -23.568 -5.87036
ltoes -4.5061
188
root 0.203461 16.3657 -5.60652 16.1546 -0.375683 2.69481
lowerback -14.0217 -1.19848 -4.36211
upperback -5.34992 -0.990129 -0.569489
thorax 2.27416 -0.459422 1.71003
lowerneck -4.45422 -0.937772 -0.563402
upperneck 11.409 -1.41226 1.69329
head 4.59101 -0.636547 0.597602
rclavicle -4.80966e-015 -2.22639e-014
rhumerus -52.9357 -31.5161 -58.9325
rradius 13.7567
rwrist 25.1708
rhand -15.206 -32.9157
rfingers 7.12502
rthumb 10.966 -62.6093
lclavicle -4.80966e-015 -2.22639e-014
lhumerus -30.8943 8.85495 79.2342
lradius 24.7775
lwrist -3.86627
lhand -19.5895 -16.584
lfingers 7.12502
lthumb 6.73607 13.2888
rfemur -47.1325 -3.44579 19.1344
rtibia 63.7838
rfoot -13.7699 -1.924
rtoes -13.6899
lfemur -25.4576 4.64086 -27.3458
ltibia 34.7655
lfoot -24.2415 -6.50459
ltoes -4.4015
